# xmcd
#
# Track frame offsets:
#	150
#	20873
#	37591
#	55090
#	75931
#	90866
#	105668
#	119723
#	138330
#	147269
#	160608
#
# Disc length: 2224 seconds
# Revision: 0
# Processed by: cddbd v1.5.2PL0 Copyright (c) Steve Scherf et al.
# Submitted via: dBpowerAMP V12.0
#
DISCID=7e08ae0b
DTITLE=Ray Cashman - Slow Drag
DYEAR=2017
DGENRE=Jazz
TTITLE0=Fame
TTITLE1=Nina's Diner
TTITLE2=Dead Man's Cadillac
TTITLE3=She's Just A Girl
TTITLE4=Baby
TTITLE5=Thank God I Have You
TTITLE6=Where The Blues Was Born
TTITLE7=Full Moon Over Orleans
TTITLE8=Rise Again
TTITLE9=Bleed
TTITLE10=She's Just A Girl (Reprise)
EXTD=
EXTT0=
EXTT1=
EXTT2=
EXTT3=
EXTT4=
EXTT5=
EXTT6=
EXTT7=
EXTT8=
EXTT9=
EXTT10=
PLAYORDER=
